<svg xmlns="http://www.w3.org/2000/svg" viewBox="0 0 1200 675" role="img">
  <defs>
    <linearGradient id="bg" x1="0" y1="0" x2="1" y2="1"><stop offset="0" stop-color="#0a3f86"/><stop offset="1" stop-color="#031b3c"/></linearGradient>
    <radialGradient id="glow" cx="72%" cy="35%" r="55%"><stop offset="0" stop-color="#00a7d6" stop-opacity=".32"/><stop offset="1" stop-color="#00a7d6" stop-opacity="0"/></radialGradient>
  </defs>
  <rect width="1200" height="675" fill="url(#bg)"/><rect width="1200" height="675" fill="url(#glow)"/>
  <g stroke="#fff" stroke-opacity=".06"><line x1="0" y1="0" x2="0" y2="675"/><line x1="60" y1="0" x2="60" y2="675"/><line x1="120" y1="0" x2="120" y2="675"/><line x1="180" y1="0" x2="180" y2="675"/><line x1="240" y1="0" x2="240" y2="675"/><line x1="300" y1="0" x2="300" y2="675"/><line x1="360" y1="0" x2="360" y2="675"/><line x1="420" y1="0" x2="420" y2="675"/><line x1="480" y1="0" x2="480" y2="675"/><line x1="540" y1="0" x2="540" y2="675"/><line x1="600" y1="0" x2="600" y2="675"/><line x1="660" y1="0" x2="660" y2="675"/><line x1="720" y1="0" x2="720" y2="675"/><line x1="780" y1="0" x2="780" y2="675"/><line x1="840" y1="0" x2="840" y2="675"/><line x1="900" y1="0" x2="900" y2="675"/><line x1="960" y1="0" x2="960" y2="675"/><line x1="1020" y1="0" x2="1020" y2="675"/><line x1="1080" y1="0" x2="1080" y2="675"/><line x1="1140" y1="0" x2="1140" y2="675"/><line x1="1200" y1="0" x2="1200" y2="675"/><line x1="0" y1="0" x2="1200" y2="0"/><line x1="0" y1="75" x2="1200" y2="75"/><line x1="0" y1="150" x2="1200" y2="150"/><line x1="0" y1="225" x2="1200" y2="225"/><line x1="0" y1="300" x2="1200" y2="300"/><line x1="0" y1="375" x2="1200" y2="375"/><line x1="0" y1="450" x2="1200" y2="450"/><line x1="0" y1="525" x2="1200" y2="525"/><line x1="0" y1="600" x2="1200" y2="600"/><line x1="0" y1="675" x2="1200" y2="675"/></g>
  
  <g fill="none" stroke="#9fd8ea" stroke-width="2.2"><path d="M120 150 h300 a16 16 0 0 1 16 16 v60 a16 16 0 0 1 -16 16 h-300 a16 16 0 0 1 -16 -16 v-60 a16 16 0 0 1 16 -16 z"/><line x1="130" y1="215" x2="420" y2="215" stroke="#00a7d6" stroke-opacity=".7"/><line x1="130" y1="228" x2="420" y2="228" stroke="#00a7d6" stroke-opacity=".4"/></g>
  <g fill="none" stroke="#00a7d6" stroke-width="2.4" stroke-linecap="round" stroke-dasharray="6 10"><path d="M180 250 c -20 40, -40 70, -80 110" stroke-opacity=".9"/><path d="M260 250 c -20 50, -50 90, -100 140" stroke-opacity=".6"/><path d="M340 250 c -20 55, -60 100, -120 160" stroke-opacity=".35"/></g>
  <g fill="none" stroke="#9fd8ea" stroke-width="2.2"><rect x="560" y="300" width="230" height="240" rx="10"/><circle cx="675" cy="420" r="72" stroke="#00a7d6" stroke-opacity=".8"/>
    <g transform="translate(675 420)" stroke="#00a7d6"><path transform="rotate(0)" d="M0 0 c 14 -22, 40 -32, 60 -16 c -16 12, -38 15, -60 16 z" fill="#00a7d6" fill-opacity=".25"/><path transform="rotate(72)" d="M0 0 c 14 -22, 40 -32, 60 -16 c -16 12, -38 15, -60 16 z" fill="#00a7d6" fill-opacity=".25"/><path transform="rotate(144)" d="M0 0 c 14 -22, 40 -32, 60 -16 c -16 12, -38 15, -60 16 z" fill="#00a7d6" fill-opacity=".25"/><path transform="rotate(216)" d="M0 0 c 14 -22, 40 -32, 60 -16 c -16 12, -38 15, -60 16 z" fill="#00a7d6" fill-opacity=".25"/><path transform="rotate(288)" d="M0 0 c 14 -22, 40 -32, 60 -16 c -16 12, -38 15, -60 16 z" fill="#00a7d6" fill-opacity=".25"/><circle r="8" fill="#041b37"/></g></g>
  <g fill="none" stroke-width="2.6" stroke-linecap="round"><path d="M436 200 L620 200 L620 300" stroke="#f47b20" stroke-dasharray="8 12"/><path d="M436 180 L650 180 L650 300" stroke="#00a7d6" stroke-dasharray="8 12"/></g>
  <g transform="translate(900 180)" fill="none" stroke="#9fd8ea" stroke-width="2.2"><circle r="70"/><circle r="58" stroke="#00a7d6" stroke-opacity=".6"/><line transform="rotate(-120)" x1="0" y1="-58" x2="0" y2="-48"/><line transform="rotate(-90)" x1="0" y1="-58" x2="0" y2="-48"/><line transform="rotate(-60)" x1="0" y1="-58" x2="0" y2="-48"/><line transform="rotate(-30)" x1="0" y1="-58" x2="0" y2="-48"/><line transform="rotate(0)" x1="0" y1="-58" x2="0" y2="-48"/><line transform="rotate(30)" x1="0" y1="-58" x2="0" y2="-48"/><line transform="rotate(60)" x1="0" y1="-58" x2="0" y2="-48"/><line transform="rotate(90)" x1="0" y1="-58" x2="0" y2="-48"/><line transform="rotate(120)" x1="0" y1="-58" x2="0" y2="-48"/><line x1="0" y1="0" x2="34" y2="-40" stroke="#f47b20" stroke-width="3"/><circle r="5" fill="#f47b20" stroke="none"/></g>
  <text x="900" y="290" text-anchor="middle" fill="#e6f3f9" font-size="14" font-weight="700" letter-spacing="2" font-family="Arial, Helvetica, sans-serif">MANİFOLD</text>
  <g transform="translate(60 60)"><rect width="200" height="58" rx="2" fill="#041b37" stroke="#00a7d6" stroke-opacity=".5"/><text x="16" y="24" fill="#00a7d6" font-size="10" font-weight="800" letter-spacing="2" font-family="Arial, Helvetica, sans-serif">GAZ</text><text x="16" y="46" fill="#fff" font-size="17" font-weight="700" font-family="Arial, Helvetica, sans-serif">R32 · tartılı dolum</text></g>
  <g transform="translate(940 557)"><rect width="200" height="58" rx="2" fill="#041b37" stroke="#00a7d6" stroke-opacity=".5"/><text x="16" y="24" fill="#00a7d6" font-size="10" font-weight="800" letter-spacing="2" font-family="Arial, Helvetica, sans-serif">KAÇAK TESTİ</text><text x="16" y="46" fill="#fff" font-size="17" font-weight="700" font-family="Arial, Helvetica, sans-serif">Azot · 30 dk</text></g>
</svg>